<?xml version="1.0" encoding="UTF-8" standalone="no"?>
<svg
   width="600pt"
   height="600pt"
   viewBox="0 0 600 600"
   version="1.1"
   id="svg23"
   xmlns="http://www.w3.org/2000/svg"
   xmlns:svg="http://www.w3.org/2000/svg">
  <defs
     id="defs23" />
  <path
     fill-rule="evenodd"
     fill="rgb(90.557861%, 88.806152%, 93.145752%)"
     fill-opacity="1"
     d="M 329.96875 519.757812 C 409.039062 519.757812 473.527344 508.703125 473.527344 495.160156 C 473.527344 481.617188 409.039062 470.566406 329.96875 470.566406 C 250.902344 470.566406 186.414062 481.617188 186.414062 495.160156 C 186.414062 508.703125 250.902344 519.757812 329.96875 519.757812 "
     id="path1" />
  <path
     fill-rule="evenodd"
     fill="rgb(17.643738%, 16.757202%, 17.834473%)"
     fill-opacity="1"
     d="M 182.675781 106.578125 C 189.433594 107.195312 194.410156 113.167969 193.796875 119.921875 C 193.179688 126.679688 187.203125 131.65625 180.449219 131.042969 C 173.695312 130.425781 168.714844 124.449219 169.332031 117.695312 C 169.945312 110.9375 175.921875 105.960938 182.675781 106.578125 "
     id="path2" />
  <path
     fill-rule="evenodd"
     fill="rgb(79.972839%, 17.663574%, 13.716125%)"
     fill-opacity="1"
     d="M 185.527344 108.3125 C 189.507812 108.675781 192.445312 112.199219 192.082031 116.179688 C 191.71875 120.164062 188.195312 123.101562 184.210938 122.738281 C 180.226562 122.375 177.292969 118.851562 177.65625 114.867188 C 178.015625 110.882812 181.539062 107.945312 185.527344 108.3125 "
     id="path3" />
  <path
     fill-rule="evenodd"
     fill="rgb(94.996643%, 56.086731%, 38.415527%)"
     fill-opacity="1"
     d="M 156.367188 77.363281 C 157.550781 77.472656 158.390625 78.855469 158.246094 80.457031 C 158.101562 82.058594 157.023438 83.269531 155.839844 83.164062 C 154.65625 83.054688 153.8125 81.667969 153.960938 80.066406 C 154.105469 78.46875 155.183594 77.253906 156.367188 77.363281 "
     id="path4" />
  <path
     fill-rule="evenodd"
     fill="rgb(17.643738%, 16.757202%, 17.834473%)"
     fill-opacity="1"
     d="M 199.863281 104.375 C 209.738281 105.273438 217.007812 114.003906 216.109375 123.875 C 215.210938 133.746094 206.476562 141.019531 196.609375 140.121094 C 186.734375 139.222656 179.464844 130.492188 180.367188 120.621094 C 181.261719 110.75 189.992188 103.476562 199.863281 104.375 "
     id="path5" />
  <path
     fill-rule="evenodd"
     fill="rgb(94.996643%, 56.086731%, 38.415527%)"
     fill-opacity="1"
     d="M 187.8125 167.726562 L 189.859375 162.445312 C 193.75 152.398438 194.714844 141.804688 192.703125 131.222656 L 209.796875 132.777344 L 208.488281 136.230469 C 204.910156 145.675781 212.234375 155.988281 225.742188 160.515625 Z M 187.8125 167.726562 "
     id="path6" />
  <path
     fill-rule="evenodd"
     fill="rgb(84.017944%, 41.394043%, 24.273682%)"
     fill-opacity="1"
     d="M 199.226562 131.816406 L 209.796875 132.777344 L 208.488281 136.230469 C 206.773438 140.746094 207.558594 145.464844 210.324219 149.652344 C 200.917969 148.542969 193.816406 143.441406 194.300781 138.023438 C 194.535156 135.5 196.371094 133.339844 199.226562 131.816406 "
     id="path7" />
  <path
     fill-rule="evenodd"
     fill="rgb(94.996643%, 56.086731%, 38.415527%)"
     fill-opacity="1"
     d="M 174.316406 184.882812 L 166.246094 180.664062 C 148.199219 171.222656 134.660156 154.972656 128.636719 135.515625 L 129.554688 125.46875 C 131.121094 108.273438 137.183594 91.792969 147.140625 77.679688 L 147.667969 86.890625 C 148.597656 103.074219 147.117188 119.3125 143.28125 135.0625 L 152.871094 144.28125 C 163.878906 154.855469 178.804688 160.347656 194.042969 159.433594 Z M 174.316406 184.882812 "
     id="path8" />
  <path
     fill-rule="evenodd"
     fill="rgb(94.996643%, 56.086731%, 38.415527%)"
     fill-opacity="1"
     d="M 235.613281 152.222656 L 247.527344 158.566406 C 259.570312 164.976562 272.4375 169.710938 285.761719 172.636719 C 306.808594 177.253906 325.097656 190.160156 336.503906 208.4375 C 315.535156 204.746094 306.585938 198.875 288.265625 188.535156 C 275.355469 181.25 271.40625 185.207031 247.5 176.816406 Z M 235.613281 152.222656 "
     id="path9" />
  <path
     fill-rule="evenodd"
     fill="rgb(94.996643%, 56.086731%, 38.415527%)"
     fill-opacity="1"
     d="M 215.113281 118.582031 C 217.886719 127.25 218.675781 136.480469 217.359375 145.578125 L 215.992188 146.164062 C 213.585938 147.191406 211.183594 147.296875 208.695312 146.480469 L 206.617188 145.796875 C 193.832031 141.617188 184.5625 130.492188 182.757812 117.160156 L 201.109375 108.847656 L 213.507812 115.371094 Z M 215.113281 118.582031 "
     id="path10" />
  <path
     fill-rule="evenodd"
     fill="rgb(79.972839%, 17.663574%, 13.716125%)"
     fill-opacity="1"
     d="M 218.730469 249.058594 L 218.027344 237.359375 C 215.355469 223.597656 205.828125 212.167969 192.785156 207.054688 L 174.316406 184.882812 L 178.929688 176.710938 C 191.269531 154.851562 210.972656 147.449219 235.613281 152.222656 L 250.660156 165.789062 C 257.332031 171.800781 264.367188 176.144531 256.460938 187.15625 L 263.5625 201.792969 C 259.609375 216.898438 269.894531 230.5625 285.425781 238.054688 L 262.363281 257.800781 Z M 218.730469 249.058594 "
     id="path11" />
  <path
     fill-rule="evenodd"
     fill="rgb(94.996643%, 56.086731%, 38.415527%)"
     fill-opacity="1"
     d="M 186.828125 165.714844 C 195.757812 156 207.113281 151.203125 220.386719 150.859375 L 222.757812 152.433594 C 226.777344 155.105469 229.027344 159.75 228.632812 164.558594 C 228.246094 169.371094 225.269531 173.589844 220.871094 175.570312 C 216.46875 177.554688 211.335938 176.988281 207.472656 174.097656 C 201.410156 169.5625 194.300781 166.683594 186.828125 165.714844 "
     id="path12" />
  <path
     fill-rule="evenodd"
     fill="rgb(17.643738%, 16.757202%, 17.834473%)"
     fill-opacity="1"
     d="M 285.425781 238.054688 L 315.15625 258.941406 C 345.6875 280.996094 370.167969 310.382812 386.335938 344.390625 L 402.699219 354.328125 C 428.308594 369.886719 445.6875 405.816406 436.390625 452.15625 C 428.410156 425.394531 384.566406 387.691406 365.078125 360.085938 C 330.660156 333.085938 293.558594 310.902344 259.875 284.488281 C 245.722656 318.425781 235.035156 342.453125 206.5 368.351562 L 218.710938 374.300781 C 259.535156 394.199219 265.628906 427.300781 278.648438 465.707031 L 178.699219 394.160156 C 164.363281 383.898438 163.429688 365.464844 170.996094 349.535156 L 218.730469 249.058594 C 235.347656 236.4375 265.21875 233.644531 285.425781 238.054688 "
     id="path13" />
  <path
     fill-rule="evenodd"
     fill="rgb(17.643738%, 16.757202%, 17.834473%)"
     fill-opacity="1"
     d="M 197.855469 20.035156 C 204.910156 25.296875 205.4375 36.523438 199.03125 45.109375 C 192.625 53.691406 181.714844 56.386719 174.664062 51.121094 C 167.609375 45.859375 167.082031 34.632812 173.488281 26.050781 C 179.890625 17.464844 190.800781 14.773438 197.855469 20.035156 "
     id="path14" />
  <path
     fill-rule="evenodd"
     fill="rgb(17.643738%, 16.757202%, 17.834473%)"
     fill-opacity="1"
     d="M 199.492188 17.835938 C 207.546875 23.84375 208.144531 36.65625 200.835938 46.453125 C 196.5 52.261719 190.363281 55.707031 184.398438 56.296875 C 180.941406 57.300781 177.675781 58.800781 174.703125 60.734375 C 171.429688 62.851562 168.515625 65.480469 166.074219 68.527344 L 164.636719 67.382812 C 167.207031 64.171875 170.269531 61.410156 173.695312 59.191406 C 175.519531 58.007812 177.457031 56.976562 179.476562 56.109375 C 177.164062 55.683594 174.964844 54.765625 173.027344 53.316406 C 171.09375 51.878906 169.589844 50.042969 168.523438 47.953125 C 168.269531 50.132812 167.835938 52.277344 167.21875 54.359375 C 166.066406 58.273438 164.292969 61.996094 161.945312 65.375 L 160.441406 64.324219 C 162.667969 61.117188 164.355469 57.574219 165.457031 53.835938 C 166.453125 50.453125 166.957031 46.925781 166.945312 43.347656 C 165.78125 37.445312 167.324219 30.539062 171.683594 24.703125 C 178.992188 14.90625 191.441406 11.832031 199.492188 17.835938 "
     id="path15" />
  <path
     fill-rule="evenodd"
     fill="rgb(79.972839%, 17.663574%, 13.716125%)"
     fill-opacity="1"
     d="M 161.136719 63.054688 L 167.074219 67.484375 L 154.425781 84.441406 L 148.484375 80.011719 Z M 161.136719 63.054688 "
     id="path16" />
  <path
     fill-rule="evenodd"
     fill="rgb(94.996643%, 56.086731%, 38.415527%)"
     fill-opacity="1"
     d="M 145.605469 79.917969 L 147.664062 77 C 149.472656 74.4375 152.226562 72.695312 155.324219 72.160156 C 158.417969 71.625 161.59375 72.34375 164.160156 74.152344 L 159.128906 81.285156 L 156.21875 79.84375 C 153.578125 78.539062 150.550781 78.265625 147.722656 79.070312 Z M 145.605469 79.917969 "
     id="path17" />
  <path
     fill-rule="evenodd"
     fill="rgb(79.972839%, 17.663574%, 13.716125%)"
     fill-opacity="1"
     d="M 229.164062 20.855469 C 232.753906 21.183594 235.40625 24.359375 235.074219 27.949219 C 234.75 31.539062 231.570312 34.1875 227.976562 33.859375 C 224.390625 33.53125 221.746094 30.355469 222.070312 26.761719 C 222.398438 23.175781 225.574219 20.527344 229.164062 20.855469 "
     id="path18" />
  <path
     fill-rule="evenodd"
     fill="rgb(94.996643%, 56.086731%, 38.415527%)"
     fill-opacity="1"
     d="M 333.578125 206.234375 L 337.019531 207.175781 C 340.046875 208.003906 342.621094 210 344.179688 212.730469 C 345.730469 215.453125 346.140625 218.6875 345.308594 221.71875 L 336.894531 219.410156 L 337.253906 216.183594 C 337.578125 213.257812 336.808594 210.320312 335.089844 207.929688 Z M 333.578125 206.234375 "
     id="path19" />
  <path
     fill-rule="evenodd"
     fill="rgb(17.643738%, 16.757202%, 17.834473%)"
     fill-opacity="1"
     d="M 190.5 134.824219 L 194.371094 131.015625 C 190.65625 112.046875 209.304688 107.761719 215.175781 118.785156 L 213.835938 114.976562 L 202.992188 105.738281 L 183.570312 108.238281 L 183.847656 108.8125 L 178.691406 123.535156 Z M 190.5 134.824219 "
     id="path20" />
  <path
     fill-rule="evenodd"
     fill="rgb(94.996643%, 56.086731%, 38.415527%)"
     fill-opacity="1"
     d="M 188.988281 128.214844 C 190.355469 126.90625 193.097656 127.558594 195.113281 129.667969 C 197.128906 131.777344 197.652344 134.546875 196.28125 135.855469 C 194.910156 137.164062 192.167969 136.515625 190.152344 134.40625 C 188.136719 132.292969 187.617188 129.523438 188.988281 128.214844 "
     id="path21" />
  <path
     fill-rule="evenodd"
     fill="rgb(17.643738%, 16.757202%, 17.834473%)"
     fill-opacity="1"
     d="M 433.71875 443.378906 L 431.898438 479.277344 L 442.519531 475.34375 L 446.285156 469.296875 C 451.925781 460.242188 450.914062 448.554688 443.808594 440.597656 L 442.105469 442.972656 C 441.152344 444.304688 439.644531 445.117188 438.011719 445.199219 C 436.378906 445.28125 433.660156 444.550781 433.71875 443.378906 "
     id="path22" />
  <path
     fill-rule="evenodd"
     fill="rgb(17.643738%, 16.757202%, 17.834473%)"
     fill-opacity="1"
     d="M 266.519531 461.027344 L 255.261719 495.164062 L 266.546875 494.179688 L 271.773438 489.34375 C 279.613281 482.109375 281.734375 470.566406 276.980469 461.019531 L 274.714844 462.851562 C 273.441406 463.882812 271.773438 464.273438 270.175781 463.921875 C 268.578125 463.558594 266.152344 462.140625 266.519531 461.027344 "
     id="path23" />
</svg>
